<?xml version="1.0" standalone="no"?>
<!DOCTYPE svg PUBLIC "-//W3C//DTD SVG 20010904//EN"
 "http://www.w3.org/TR/2001/REC-SVG-20010904/DTD/svg10.dtd">
<svg version="1.0" xmlns="http://www.w3.org/2000/svg"
 width="148.000000pt" height="148.000000pt" viewBox="0 0 148.000000 148.000000"
 preserveAspectRatio="xMidYMid meet">

<g transform="translate(0.000000,148.000000) scale(0.100000,-0.100000)"
fill="#000000" stroke="none">
<path d="M710 1259 c-203 -24 -369 -176 -426 -391 -18 -70 -18 -237 1 -317 32
-134 122 -262 231 -327 106 -63 269 -88 413 -64 91 15 208 73 269 133 53 51
106 138 127 209 24 84 36 78 -161 78 l-175 0 -48 -49 c-53 -54 -97 -68 -173
-56 -60 10 -121 74 -138 145 -17 71 -8 174 19 227 50 98 171 128 262 66 24
-17 51 -43 58 -57 l14 -26 156 0 c198 0 205 2 197 49 -10 62 -72 173 -128 231
-60 61 -144 110 -228 134 -64 17 -190 25 -270 15z"/>
</g>
</svg>
