<?xml version="1.0" encoding="UTF-8"?>
<!DOCTYPE svg PUBLIC "-//W3C//DTD SVG 1.1//EN" "http://www.w3.org/Graphics/SVG/1.1/DTD/svg11.dtd">
<svg xmlns="http://www.w3.org/2000/svg" version="1.1" width="2000px" height="2250px" style="shape-rendering:geometricPrecision; text-rendering:geometricPrecision; image-rendering:optimizeQuality; fill-rule:evenodd; clip-rule:evenodd" xmlns:xlink="http://www.w3.org/1999/xlink">
<g><path style="opacity:0.995" fill="#f9cc0a" d="M 1999.5,1081.5 C 1999.5,1111.17 1999.5,1140.83 1999.5,1170.5C 1989.59,1377.11 1922.09,1562.11 1797,1725.5C 1667.15,1887.4 1502.32,1997.9 1302.5,2057C 1222.06,2077.8 1140.4,2090.63 1057.5,2095.5C 1048.86,2094.72 1040.19,2094.22 1031.5,2094C 986.633,2086.77 941.633,2080.43 896.5,2075C 790.286,2054.82 690.619,2017.49 597.5,1963C 560.339,1940.75 525.672,1915.08 493.5,1886C 481.953,1874.95 470.953,1863.45 460.5,1851.5C 403.059,1803.58 356.559,1746.92 321,1681.5C 320.291,1677.13 320.458,1672.8 321.5,1668.5C 320.53,1665.23 319.03,1662.23 317,1659.5C 307.395,1650.23 299.729,1639.56 294,1627.5C 243.087,1578.01 202.753,1521.01 173,1456.5C 155.833,1416.83 138.667,1377.17 121.5,1337.5C 121,1337.17 120.5,1336.83 120,1336.5C 118.667,1337.83 117.333,1339.17 116,1340.5C 114.118,1340.31 112.952,1339.31 112.5,1337.5C 112.875,1335.54 113.541,1333.71 114.5,1332C 110.754,1326.67 107.92,1320.84 106,1314.5C 83.2358,1230.57 75.2358,1145.24 82,1058.5C 83.3399,1044.46 84.6732,1030.46 86,1016.5C 78.6445,1042.65 74.6445,1069.32 74,1096.5C 74.5288,1157.84 75.1955,1219.17 76,1280.5C 75.6667,1280.83 75.3333,1281.17 75,1281.5C 71.0004,1276.5 68.3338,1270.83 67,1264.5C 63.9878,1248.09 60.6545,1231.76 57,1215.5C 60.6851,1288.93 74.0184,1360.59 97,1430.5C 114.885,1486.1 137.051,1539.94 163.5,1592C 163.333,1592.5 163.167,1593 163,1593.5C 156.46,1589.97 150.794,1585.3 146,1579.5C 140.941,1572.77 136.274,1565.77 132,1558.5C 118.257,1528.68 104.257,1499.01 90,1469.5C 83.803,1455.41 78.303,1441.07 73.5,1426.5C 70.0696,1425.76 68.403,1427.09 68.5,1430.5C 69.73,1436.02 71.0633,1441.52 72.5,1447C 72.3333,1447.83 72.1667,1448.67 72,1449.5C 71.3333,1450.83 70.6667,1450.83 70,1449.5C 27.9558,1358.66 4.45578,1263.32 -0.5,1163.5C -0.5,1135.83 -0.5,1108.17 -0.5,1080.5C 3.77088,1008.28 14.7709,936.949 32.5,866.5C 32.7146,862.982 31.8813,862.649 30,865.5C 28.1266,869.464 26.4599,873.464 25,877.5C 37.6759,821.474 56.3426,767.474 81,715.5C 145.003,578.488 236.836,463.654 356.5,371C 384.798,349.517 413.798,329.017 443.5,309.5C 444.833,307.167 444.833,304.833 443.5,302.5C 553.542,232.641 673.208,187.475 802.5,167C 886.487,153.675 970.82,150.675 1055.5,158C 1172.64,166.392 1285.97,191.559 1395.5,233.5C 1396.73,231.157 1396.06,229.323 1393.5,228C 1390.83,226.667 1388.17,225.333 1385.5,224C 1387.55,223.675 1389.55,224.009 1391.5,225C 1565.82,293.324 1706.65,404.157 1814,557.5C 1846.03,603.606 1874.03,652.272 1898,703.5C 1900.18,708.614 1903.51,709.947 1908,707.5C 1963.23,826.173 1993.73,950.84 1999.5,1081.5 Z M 1041.5,381.5 C 1044.97,380.875 1047.8,381.875 1050,384.5C 1050.48,383.552 1050.65,382.552 1050.5,381.5C 1052.91,381.137 1054.41,382.137 1055,384.5C 1055.77,386.403 1055.44,388.07 1054,389.5C 1049.48,386.993 1044.65,385.327 1039.5,384.5C 1040.19,383.482 1040.86,382.482 1041.5,381.5 Z M 1640.5,1463.5 C 1638.07,1462.79 1635.74,1461.79 1633.5,1460.5C 1632.37,1467.08 1629.87,1473.08 1626,1478.5C 1614.58,1490.58 1603.91,1503.25 1594,1516.5C 1590.49,1523.18 1587.83,1530.18 1586,1537.5C 1584.33,1540.17 1582.67,1542.83 1581,1545.5C 1569.67,1558.17 1558.33,1570.83 1547,1583.5C 1543.72,1587.73 1541.22,1592.4 1539.5,1597.5C 1538.68,1595.71 1537.68,1594.05 1536.5,1592.5C 1533.67,1593.93 1530.67,1594.6 1527.5,1594.5C 1524.94,1603.57 1520.44,1611.57 1514,1618.5C 1511.28,1623.27 1509.12,1628.27 1507.5,1633.5C 1503.26,1633.65 1498.92,1633.82 1494.5,1634C 1494,1634.5 1493.5,1635 1493,1635.5C 1492.97,1640.1 1493.8,1644.6 1495.5,1649C 1493.67,1651.16 1494.17,1652.33 1497,1652.5C 1504.44,1651.58 1511.27,1649.08 1517.5,1645C 1521,1641.5 1524.5,1638 1528,1634.5C 1534,1625.17 1540,1615.83 1546,1606.5C 1550.67,1600.5 1556,1595.17 1562,1590.5C 1562.17,1590.83 1562.33,1591.17 1562.5,1591.5C 1559.13,1594.36 1556.79,1597.86 1555.5,1602C 1555.75,1605.25 1557.41,1606.59 1560.5,1606C 1569.74,1601.94 1575.41,1595.11 1577.5,1585.5C 1573.42,1584.95 1572.75,1585.95 1575.5,1588.5C 1573.55,1591.32 1570.88,1592.48 1567.5,1592C 1571.78,1586.19 1575.11,1579.85 1577.5,1573C 1579.99,1570.64 1581.65,1571.14 1582.5,1574.5C 1581.19,1577.41 1580.69,1580.41 1581,1583.5C 1583.06,1584.59 1585.23,1584.76 1587.5,1584C 1594,1570.83 1603.83,1561 1617,1554.5C 1617.33,1555.83 1617.67,1557.17 1618,1558.5C 1620.54,1560.7 1622.71,1563.2 1624.5,1566C 1623.71,1567.09 1623.04,1568.25 1622.5,1569.5C 1612.26,1571.91 1604.43,1577.58 1599,1586.5C 1594.69,1596.96 1588.52,1606.13 1580.5,1614C 1576.05,1616.26 1571.38,1617.93 1566.5,1619C 1562.47,1622.57 1561.47,1626.9 1563.5,1632C 1556.18,1633.25 1550.01,1636.75 1545,1642.5C 1539.1,1649.47 1534.93,1657.31 1532.5,1666C 1525.61,1669.58 1518.28,1671.42 1510.5,1671.5C 1509.16,1675.68 1510.83,1677.85 1515.5,1678C 1515.17,1678.33 1514.83,1678.67 1514.5,1679C 1506.95,1677.97 1499.95,1679.64 1493.5,1684C 1483.87,1691.3 1475.2,1699.63 1467.5,1709C 1464.83,1707.67 1462.17,1706.33 1459.5,1705C 1456.6,1711.23 1452.27,1716.23 1446.5,1720C 1435.84,1725.33 1425.51,1731.16 1415.5,1737.5C 1421.38,1739.96 1427.38,1740.12 1433.5,1738C 1447.61,1730.89 1460.94,1722.55 1473.5,1713C 1478.57,1709.86 1483.91,1708.19 1489.5,1708C 1498.14,1700.36 1506.47,1692.36 1514.5,1684C 1535.87,1669.98 1556.54,1654.98 1576.5,1639C 1581.61,1633.89 1585.95,1628.22 1589.5,1622C 1589.33,1621.5 1589.17,1621 1589,1620.5C 1586.79,1623.29 1583.96,1624.12 1580.5,1623C 1579.17,1622 1579.17,1621 1580.5,1620C 1585.15,1618.76 1589.82,1619.1 1594.5,1621C 1596.83,1621.67 1599.17,1621.67 1601.5,1621C 1607.67,1612.83 1613.83,1604.67 1620,1596.5C 1640.41,1572.94 1660.57,1549.27 1680.5,1525.5C 1669.03,1546.45 1656.53,1566.78 1643,1586.5C 1635.39,1596.46 1625.72,1603.46 1614,1607.5C 1613.64,1614.98 1611.64,1621.98 1608,1628.5C 1601.67,1636.83 1595.33,1645.17 1589,1653.5C 1586.14,1657.89 1583.81,1662.55 1582,1667.5C 1581.2,1668.8 1580.03,1669.47 1578.5,1669.5C 1575,1667.74 1571.34,1667.24 1567.5,1668C 1564.37,1670.05 1563.71,1672.71 1565.5,1676C 1565.11,1681.11 1563.11,1685.44 1559.5,1689C 1556.17,1691.33 1552.83,1693.67 1549.5,1696C 1539.18,1700.82 1529.18,1706.16 1519.5,1712C 1514.45,1716.3 1511.78,1721.8 1511.5,1728.5C 1505.31,1731.43 1499.31,1734.59 1493.5,1738C 1482.68,1746.24 1471.68,1754.24 1460.5,1762C 1426.62,1777.77 1392.62,1793.27 1358.5,1808.5C 1357.71,1808.07 1356.87,1807.74 1356,1807.5C 1351.9,1808.9 1347.73,1810.07 1343.5,1811C 1342,1811.58 1340.67,1812.42 1339.5,1813.5C 1339.02,1815.95 1338.02,1818.12 1336.5,1820C 1330.83,1823.67 1325.17,1827.33 1319.5,1831C 1314.97,1829.85 1310.3,1829.52 1305.5,1830C 1284.7,1833.28 1264.37,1838.62 1244.5,1846C 1238.43,1848.79 1232.59,1851.95 1227,1855.5C 1225.6,1854.77 1224.1,1854.27 1222.5,1854C 1199.69,1853.16 1177.69,1856.83 1156.5,1865C 1158.52,1867.12 1161.02,1868.29 1164,1868.5C 1168.49,1867.52 1172.99,1867.02 1177.5,1867C 1174.05,1868.79 1170.88,1870.96 1168,1873.5C 1164.93,1871.34 1161.43,1870.01 1157.5,1869.5C 1153.33,1860.59 1146.33,1857.25 1136.5,1859.5C 1136.85,1863.55 1136.18,1867.38 1134.5,1871C 1139.6,1870.98 1144.6,1870.15 1149.5,1868.5C 1150.09,1868.71 1150.59,1869.04 1151,1869.5C 1150.62,1871.07 1150.79,1872.57 1151.5,1874C 1142.79,1878.86 1133.46,1880.7 1123.5,1879.5C 1115.39,1880.32 1107.72,1878.98 1100.5,1875.5C 1097.47,1876.57 1094.47,1877.73 1091.5,1879C 1078.43,1879.99 1065.43,1881.49 1052.5,1883.5C 1053.23,1879.63 1051.89,1876.97 1048.5,1875.5C 1045.54,1877.64 1042.21,1878.64 1038.5,1878.5C 1028.65,1876.81 1018.82,1876.14 1009,1876.5C 1008.5,1876.83 1008,1877.17 1007.5,1877.5C 1018.22,1883.02 1029.55,1886.85 1041.5,1889C 1039.25,1891.71 1036.41,1893.54 1033,1894.5C 1030.45,1892.29 1027.61,1890.45 1024.5,1889C 1020.08,1888.3 1016.08,1886.8 1012.5,1884.5C 986.397,1887.58 960.397,1886.75 934.5,1882C 907.555,1877.01 880.555,1872.34 853.5,1868C 843.195,1866.94 832.861,1866.27 822.5,1866C 823.602,1863.6 823.769,1861.1 823,1858.5C 819.919,1855.71 816.419,1853.54 812.5,1852C 810.622,1850.46 809.122,1848.62 808,1846.5C 805.861,1850.15 802.694,1852.15 798.5,1852.5C 791.524,1851.34 784.524,1850.34 777.5,1849.5C 773.754,1841.78 767.754,1836.62 759.5,1834C 747.767,1831.25 736.1,1828.25 724.5,1825C 713.786,1820.75 707.452,1812.92 705.5,1801.5C 692.511,1800.75 680.511,1796.92 669.5,1790C 658.044,1781.22 646.044,1773.22 633.5,1766C 641.478,1762.21 640.811,1759.88 631.5,1759C 625.564,1754.37 618.897,1751.37 611.5,1750C 613.634,1747.3 614.634,1744.47 614.5,1741.5C 608.534,1739.36 603.201,1736.19 598.5,1732C 586.833,1716.33 573.167,1702.67 557.5,1691C 552.5,1688.67 547.5,1686.33 542.5,1684C 529.28,1670.62 516.614,1656.78 504.5,1642.5C 500.471,1638.64 495.804,1635.81 490.5,1634C 492.878,1633.49 495.212,1632.82 497.5,1632C 494.9,1629.13 494.9,1626.29 497.5,1623.5C 494.509,1622 491.509,1620.5 488.5,1619C 480.289,1610.32 470.789,1603.48 460,1598.5C 459.738,1594.77 460.238,1591.1 461.5,1587.5C 461.332,1584.15 459.499,1582.48 456,1582.5C 451.726,1583.7 447.559,1584.03 443.5,1583.5C 442.796,1594.22 445.629,1603.89 452,1612.5C 461.908,1622.41 472.408,1631.58 483.5,1640C 487.121,1643.44 490.121,1647.27 492.5,1651.5C 488.145,1647.09 484.811,1647.76 482.5,1653.5C 484.697,1660.86 488.697,1667.03 494.5,1672C 498.379,1674.63 500.712,1673.8 501.5,1669.5C 495.765,1670.18 494.098,1667.85 496.5,1662.5C 501.656,1666.91 507.323,1670.58 513.5,1673.5C 516.592,1676.89 515.926,1678.89 511.5,1679.5C 508.563,1678.53 505.563,1677.86 502.5,1677.5C 502.201,1679.6 502.534,1681.6 503.5,1683.5C 508.725,1686.22 513.225,1689.89 517,1694.5C 520.961,1701.59 524.794,1708.75 528.5,1716C 524.507,1716.32 521.174,1717.99 518.5,1721C 517.167,1721.67 515.833,1721.67 514.5,1721C 512.364,1710.73 507.364,1702.07 499.5,1695C 491.245,1690.46 484.078,1684.63 478,1677.5C 474.553,1671.31 472.553,1664.64 472,1657.5C 471.167,1656.67 470.333,1655.83 469.5,1655C 465.848,1654.5 462.182,1654.33 458.5,1654.5C 459.578,1648.55 458.078,1643.22 454,1638.5C 448.388,1631.21 441.388,1625.87 433,1622.5C 430.668,1623.88 429.001,1623.22 428,1620.5C 424.408,1613.87 423.408,1606.87 425,1599.5C 421.583,1597.87 419.25,1598.87 418,1602.5C 417.667,1602.17 417.333,1601.83 417,1601.5C 419.097,1594.36 418.43,1587.36 415,1580.5C 408.651,1569.81 401.151,1559.98 392.5,1551C 395.329,1549.75 397.995,1548.25 400.5,1546.5C 398.144,1544.31 395.644,1542.31 393,1540.5C 385.026,1528.22 378.359,1515.22 373,1501.5C 372.586,1501.04 372.086,1500.71 371.5,1500.5C 370.194,1501.91 369.36,1503.58 369,1505.5C 368.421,1516.44 370.755,1526.78 376,1536.5C 382.388,1547.11 387.555,1558.28 391.5,1570C 391.415,1571.11 391.081,1572.11 390.5,1573C 396.544,1581.59 402.711,1590.09 409,1598.5C 416.373,1612.75 423.873,1626.91 431.5,1641C 430.376,1641.25 429.376,1641.75 428.5,1642.5C 430.202,1646.56 429.702,1650.22 427,1653.5C 407.707,1637.21 389.374,1619.87 372,1601.5C 369.116,1597.57 366.616,1593.4 364.5,1589C 365.53,1586.44 366.697,1583.94 368,1581.5C 374.057,1590.23 381.89,1596.73 391.5,1601C 396.211,1602.17 397.044,1601.34 394,1598.5C 393.631,1591.93 390.798,1586.76 385.5,1583C 381.722,1582.46 378.222,1583.29 375,1585.5C 374.228,1585.36 373.561,1585.02 373,1584.5C 373.251,1582.04 373.751,1579.54 374.5,1577C 373.343,1571.89 372.676,1566.72 372.5,1561.5C 367.209,1562.36 363.543,1560.36 361.5,1555.5C 357.273,1553.54 354.106,1554.54 352,1558.5C 349.637,1551.13 345.97,1544.47 341,1538.5C 329.514,1502.89 318.181,1467.23 307,1431.5C 302.138,1418.78 296.471,1406.44 290,1394.5C 292.437,1362.56 288.603,1331.39 278.5,1301C 281.983,1280.51 281.817,1260.01 278,1239.5C 277.668,1236.49 276.834,1233.66 275.5,1231C 273.613,1230.84 272.113,1231.67 271,1233.5C 270.5,1236 270,1238.5 269.5,1241C 270.561,1247.14 270.727,1253.31 270,1259.5C 269.252,1261.33 268.252,1263 267,1264.5C 265.462,1258.94 264.462,1253.27 264,1247.5C 263.333,1234.5 263.333,1221.5 264,1208.5C 267.658,1178.94 269.491,1149.27 269.5,1119.5C 272.206,1119.42 274.873,1119.09 277.5,1118.5C 277.045,1115.8 276.378,1113.13 275.5,1110.5C 286.059,1067.06 282.559,1065.73 265,1106.5C 261.977,1113.9 259.977,1121.57 259,1129.5C 256.544,1131.21 253.877,1132.54 251,1133.5C 250.659,1145.67 250.825,1157.83 251.5,1170C 251.999,1183.18 250.165,1196.01 246,1208.5C 243.145,1205.25 240.145,1204.92 237,1207.5C 235,1218.17 233,1228.83 231,1239.5C 229.063,1235.35 227.729,1231.02 227,1226.5C 225.01,1215.24 223.676,1203.91 223,1192.5C 222.308,1158.81 222.808,1125.15 224.5,1091.5C 223.318,1082.5 223.318,1073.5 224.5,1064.5C 226.258,1063.87 227.758,1062.87 229,1061.5C 231.232,1056.92 233.732,1052.59 236.5,1048.5C 235.225,1058.8 234.725,1069.14 235,1079.5C 235.115,1084.4 237.281,1088.07 241.5,1090.5C 247.981,1035.95 257.815,981.95 271,928.5C 295.187,833.808 336.187,747.474 394,669.5C 404.595,655.404 416.095,642.071 428.5,629.5C 429.582,637.034 429.248,644.534 427.5,652C 427.454,653.728 427.954,655.228 429,656.5C 453.423,628.081 477.09,599.081 500,569.5C 514.149,552.678 530.149,538.012 548,525.5C 548.635,527.635 548.301,529.635 547,531.5C 541.667,536.833 536.333,542.167 531,547.5C 529.699,549.365 529.365,551.365 530,553.5C 534.526,548.494 539.693,544.327 545.5,541C 556.424,538.013 567.424,535.346 578.5,533C 579.88,531.676 580.214,530.343 579.5,529C 576.167,528.333 572.833,527.667 569.5,527C 568.833,526.333 568.167,525.667 567.5,525C 576.668,517.331 585.668,509.497 594.5,501.5C 594.917,502.124 595.584,502.457 596.5,502.5C 600.605,501.281 604.605,499.781 608.5,498C 616.673,492.644 624.673,487.144 632.5,481.5C 626.237,486.444 621.904,492.777 619.5,500.5C 619.833,501.167 620.167,501.833 620.5,502.5C 627.609,501.298 634.109,498.631 640,494.5C 641.834,491.127 641.667,487.794 639.5,484.5C 639.865,483.098 640.699,482.098 642,481.5C 649.1,483.629 656.266,483.963 663.5,482.5C 664.233,477.363 666.733,473.363 671,470.5C 671.687,468.432 671.52,466.432 670.5,464.5C 673.254,461.412 676.087,461.079 679,463.5C 717.76,445.375 757.594,429.875 798.5,417C 814.356,416.377 830.023,414.377 845.5,411C 853.494,408.588 860.66,404.755 867,399.5C 868.28,399.613 869.113,400.28 869.5,401.5C 867.667,402.968 867.334,404.635 868.5,406.5C 869.167,406.167 869.833,405.833 870.5,405.5C 871.833,406.5 873.167,407.5 874.5,408.5C 877.638,407.195 879.971,405.029 881.5,402C 901.79,399.414 922.123,397.247 942.5,395.5C 942.5,393.167 942.5,390.833 942.5,388.5C 945.443,388.353 948.276,387.687 951,386.5C 951.95,387.022 952.784,387.689 953.5,388.5C 960.51,388.338 967.51,388.338 974.5,388.5C 973.833,391.5 973.167,394.5 972.5,397.5C 977.899,397.691 983.233,397.191 988.5,396C 992.153,395.016 994.32,392.849 995,389.5C 994.25,388.874 993.416,388.374 992.5,388C 1003.32,381.83 1009.16,384.996 1010,397.5C 1013.87,391.898 1019.2,389.231 1026,389.5C 1037.29,391.372 1048.46,393.872 1059.5,397C 1064.17,397.667 1068.83,397.667 1073.5,397C 1074.42,396.626 1075.25,396.126 1076,395.5C 1077.03,392.05 1078.36,388.717 1080,385.5C 1082.4,384.398 1084.9,384.231 1087.5,385C 1100.9,396.035 1116.23,402.035 1133.5,403C 1130.97,402.381 1128.63,401.381 1126.5,400C 1130.17,398.333 1133.83,396.667 1137.5,395C 1136.42,394.044 1135.25,393.211 1134,392.5C 1133.41,391.517 1133.74,390.85 1135,390.5C 1140.75,391.861 1146.58,392.528 1152.5,392.5C 1153.17,399.214 1156.67,401.214 1163,398.5C 1164.13,396.655 1164.63,394.655 1164.5,392.5C 1169.83,393.167 1175.17,393.833 1180.5,394.5C 1180.3,396.989 1180.8,399.323 1182,401.5C 1185.57,404.699 1189.4,407.533 1193.5,410C 1184.62,408.194 1175.62,406.694 1166.5,405.5C 1160.85,405.377 1156.19,407.377 1152.5,411.5C 1195.51,421.885 1238.18,434.052 1280.5,448C 1311.94,458.98 1342.61,471.813 1372.5,486.5C 1373.39,487.325 1373.72,488.325 1373.5,489.5C 1395.61,498.222 1416.61,509.055 1436.5,522C 1438.41,523.413 1439.75,525.247 1440.5,527.5C 1442.42,528.308 1444.42,528.808 1446.5,529C 1454,534.249 1461.66,539.249 1469.5,544C 1476.12,552.956 1483.12,561.623 1490.5,570C 1495.67,572.765 1501.17,574.265 1507,574.5C 1513.56,585.062 1520.89,595.062 1529,604.5C 1546.7,622.935 1563.7,641.935 1580,661.5C 1588.09,672.426 1595.59,683.76 1602.5,695.5C 1603.43,694.359 1604.26,694.359 1605,695.5C 1608.38,703.104 1612.88,709.938 1618.5,716C 1617.33,716.419 1616.33,717.085 1615.5,718C 1617.13,720.628 1619.13,722.961 1621.5,725C 1619.42,725.192 1617.42,725.692 1615.5,726.5C 1621.94,732.439 1627.44,739.105 1632,746.5C 1634.18,751.021 1635.51,755.687 1636,760.5C 1634.54,757.79 1632.54,757.124 1630,758.5C 1628.52,761.702 1628.18,765.036 1629,768.5C 1633,769.833 1637,769.833 1641,768.5C 1644.31,769.074 1647.15,770.574 1649.5,773C 1641.96,774.567 1639.46,779.067 1642,786.5C 1642.53,789.272 1643.36,791.938 1644.5,794.5C 1647.41,791.678 1649.58,788.345 1651,784.5C 1654.98,782.618 1657.14,783.952 1657.5,788.5C 1656.64,791.527 1655.14,794.194 1653,796.5C 1652.33,798.167 1652.33,799.833 1653,801.5C 1657.48,795.369 1662.65,794.869 1668.5,800C 1665.95,803.731 1665.95,807.564 1668.5,811.5C 1666.98,811.88 1665.31,812.046 1663.5,812C 1670.86,819.239 1673.2,827.739 1670.5,837.5C 1669.91,837.291 1669.41,836.957 1669,836.5C 1667.18,831.548 1665.51,826.548 1664,821.5C 1661.03,819.433 1657.86,819.1 1654.5,820.5C 1659.99,825.159 1664.15,830.826 1667,837.5C 1670.96,849.323 1674.29,861.323 1677,873.5C 1679.07,880.813 1682.57,887.313 1687.5,893C 1689.89,894.861 1692.55,896.194 1695.5,897C 1689.17,899.437 1687.83,903.604 1691.5,909.5C 1690.48,910.852 1689.15,911.852 1687.5,912.5C 1690.09,913.584 1692.25,915.251 1694,917.5C 1696.53,922.751 1698.86,928.084 1701,933.5C 1703.6,936.202 1706.43,938.536 1709.5,940.5C 1706.3,949.448 1703.3,958.448 1700.5,967.5C 1704.53,974.221 1708.03,981.221 1711,988.5C 1713.03,992.026 1715.86,994.693 1719.5,996.5C 1717.11,1003.95 1715.61,1011.62 1715,1019.5C 1714.36,1022.11 1713.19,1024.45 1711.5,1026.5C 1713.38,1026.85 1715.38,1026.35 1717.5,1025C 1723.54,1023.68 1728.2,1025.68 1731.5,1031C 1729.45,1031.93 1727.95,1033.43 1727,1035.5C 1725.87,1039.75 1725.21,1044.08 1725,1048.5C 1724.17,1049.33 1723.33,1050.17 1722.5,1051C 1726.91,1062.74 1729.41,1074.9 1730,1087.5C 1730.67,1104.83 1730.67,1122.17 1730,1139.5C 1728.33,1162.98 1727.17,1186.48 1726.5,1210C 1726.39,1220.89 1727.06,1231.73 1728.5,1242.5C 1726.47,1242.34 1724.47,1242.5 1722.5,1243C 1719.57,1247.1 1717.41,1251.6 1716,1256.5C 1714.83,1257.89 1713.33,1258.73 1711.5,1259C 1719.39,1263.72 1721.73,1270.56 1718.5,1279.5C 1718.35,1282.25 1719.02,1284.75 1720.5,1287C 1712.45,1292.39 1707.62,1299.89 1706,1309.5C 1705.02,1322.34 1703.02,1335.01 1700,1347.5C 1695.26,1356.24 1688.09,1362.07 1678.5,1365C 1680.18,1374.66 1679.34,1384.16 1676,1393.5C 1668.33,1408.83 1660.67,1424.17 1653,1439.5C 1651.91,1437.65 1650.57,1435.98 1649,1434.5C 1646.74,1441.28 1644.07,1447.95 1641,1454.5C 1640.5,1457.48 1640.34,1460.48 1640.5,1463.5 Z M 1100.5,389.5 C 1100.74,388.903 1101.24,388.57 1102,388.5C 1106.85,389.587 1111.68,390.754 1116.5,392C 1127.21,396.134 1126.54,397.467 1114.5,396C 1109.66,394.079 1104.99,391.912 1100.5,389.5 Z M 860.5,397.5 C 862.347,397.234 863.014,397.568 862.5,398.5C 860.902,399.485 859.235,399.651 857.5,399C 858.737,398.768 859.737,398.268 860.5,397.5 Z M 643.5,467.5 C 644.043,467.56 644.376,467.893 644.5,468.5C 642.377,470.745 641.377,473.412 641.5,476.5C 637.856,475.685 634.189,474.852 630.5,474C 634.925,471.787 639.259,469.621 643.5,467.5 Z M 1007.5,686.5 C 1012.07,698.888 1016.07,711.555 1019.5,724.5C 1010.87,723.755 1002.2,723.255 993.5,723C 998.587,710.993 1003.25,698.827 1007.5,686.5 Z M 750.5,755.5 C 760.622,754.45 766.622,758.95 768.5,769C 768.109,772.177 766.943,775.01 765,777.5C 759.6,781.904 753.933,785.904 748,789.5C 742.374,782.95 737.208,775.95 732.5,768.5C 738.176,763.667 744.176,759.334 750.5,755.5 Z M 114.5,1320.5 C 116.909,1323.58 117.076,1326.91 115,1330.5C 113.552,1327.15 113.385,1323.82 114.5,1320.5 Z M 789.5,1427.5 C 795.138,1431.32 800.805,1435.16 806.5,1439C 813.739,1447.67 812.739,1455.33 803.5,1462C 799.833,1464 796.167,1464 792.5,1462C 786.156,1458.5 780.156,1454.5 774.5,1450C 780.14,1442.87 785.14,1435.37 789.5,1427.5 Z M 1712.5,1478.5 C 1709.24,1486.44 1706.08,1494.44 1703,1502.5C 1696.68,1506.66 1691.18,1511.66 1686.5,1517.5C 1695.17,1504.49 1703.84,1491.49 1712.5,1478.5 Z M 1006.5,1493.5 C 1007.79,1494.06 1008.62,1495.06 1009,1496.5C 1012.8,1506.91 1016.8,1517.25 1021,1527.5C 1021.68,1528.78 1021.52,1529.95 1020.5,1531C 1012.17,1531.67 1003.83,1531.67 995.5,1531C 999.672,1518.65 1003.34,1506.15 1006.5,1493.5 Z M 1686.5,1517.5 C 1686.26,1519.4 1685.26,1520.74 1683.5,1521.5C 1683.74,1519.6 1684.74,1518.26 1686.5,1517.5 Z M 1683.5,1521.5 C 1683.26,1523.4 1682.26,1524.74 1680.5,1525.5C 1680.74,1523.6 1681.74,1522.26 1683.5,1521.5 Z M 437.5,1653.5 C 444.799,1665.97 453.799,1677.14 464.5,1687C 465.167,1687.67 465.833,1687.67 466.5,1687C 463.677,1683.29 463.843,1679.79 467,1676.5C 468.471,1677.38 469.304,1678.71 469.5,1680.5C 467.679,1686.44 466.512,1692.44 466,1698.5C 476.702,1709.03 487.202,1719.7 497.5,1730.5C 471.977,1716.82 449.477,1699.16 430,1677.5C 428.623,1676.04 428.623,1675.04 430,1674.5C 437.019,1678.18 443.519,1682.68 449.5,1688C 452.03,1689.42 454.697,1689.75 457.5,1689C 445.498,1680.16 438.831,1668.33 437.5,1653.5 Z M 542.5,1784.5 C 543.552,1784.35 544.552,1784.52 545.5,1785C 577.392,1817.77 613.725,1844.44 654.5,1865C 697.165,1886.5 740.165,1907.17 783.5,1927C 778.438,1934.25 780.438,1937.75 789.5,1937.5C 793.156,1936.71 796.823,1936.55 800.5,1937C 804.65,1942.6 802.816,1944.76 795,1943.5C 790.444,1943.47 785.944,1942.97 781.5,1942C 769.287,1937.89 757.287,1933.23 745.5,1928C 738.606,1926.28 731.606,1925.28 724.5,1925C 714.645,1916.82 703.978,1909.82 692.5,1904C 670.536,1894.46 649.202,1883.8 628.5,1872C 625.13,1868.97 622.13,1865.63 619.5,1862C 615.281,1860.89 611.281,1859.22 607.5,1857C 597.549,1850.05 587.883,1842.72 578.5,1835C 572.658,1830.58 566.324,1826.91 559.5,1824C 559.307,1822.35 559.14,1820.52 559,1818.5C 557.5,1816.33 556,1814.17 554.5,1812C 550.716,1814.48 546.55,1816.65 542,1818.5C 539.211,1805.69 532.378,1795.53 521.5,1788C 527.864,1790.39 534.531,1791.89 541.5,1792.5C 541.279,1789.72 541.612,1787.05 542.5,1784.5 Z"/></g>
<g><path style="opacity:0.944" fill="#f9cc0a" d="M 999.5,674.5 C 1005.83,674.5 1012.17,674.5 1018.5,674.5C 1026.56,701.178 1034.73,727.845 1043,754.5C 1046.06,755.451 1049.22,755.784 1052.5,755.5C 1052.79,759.106 1052.46,762.606 1051.5,766C 1041.5,766.25 1031.5,766.084 1021.5,765.5C 1021.94,761.846 1022.28,758.179 1022.5,754.5C 1024.86,754.663 1027.19,754.497 1029.5,754C 1027.47,747.554 1025.14,741.221 1022.5,735C 1011.97,734.799 1001.47,734.299 991,733.5C 987.667,739.509 984.833,745.842 982.5,752.5C 985.428,753.484 988.428,753.817 991.5,753.5C 991.5,757.167 991.5,760.833 991.5,764.5C 981.162,764.284 970.829,763.951 960.5,763.5C 960.724,759.821 961.058,756.154 961.5,752.5C 964.711,752.988 967.544,752.321 970,750.5C 979.743,725.099 989.577,699.765 999.5,674.5 Z M 1007.5,686.5 C 1003.25,698.827 998.587,710.993 993.5,723C 1002.2,723.255 1010.87,723.755 1019.5,724.5C 1016.07,711.555 1012.07,698.888 1007.5,686.5 Z"/></g>
<g><path style="opacity:0.942" fill="#f9cc0a" d="M 754.5,742.5 C 769.422,743.088 778.089,750.755 780.5,765.5C 780.107,770.309 778.774,774.809 776.5,779C 781.126,779.906 785.46,781.573 789.5,784C 795,788.833 800.5,793.667 806,798.5C 808.149,796.339 810.649,795.172 813.5,795C 815.5,798 817.5,801 819.5,804C 814.638,807.695 809.638,811.195 804.5,814.5C 797.018,808.186 789.685,801.686 782.5,795C 778.976,792.488 775.142,790.654 771,789.5C 765.69,791.071 760.857,793.571 756.5,797C 754.789,798.133 754.289,799.633 755,801.5C 760.268,809.051 765.768,816.384 771.5,823.5C 773.5,822.167 775.5,820.833 777.5,819.5C 780.42,821.833 782.753,824.667 784.5,828C 776.597,834.201 768.431,840.035 760,845.5C 757.64,842.64 755.473,839.64 753.5,836.5C 754.945,834.937 756.611,833.604 758.5,832.5C 759.583,831.635 759.749,830.635 759,829.5C 746.305,811.638 733.805,793.638 721.5,775.5C 719.401,776.965 717.234,778.299 715,779.5C 712.078,777.244 709.911,774.411 708.5,771C 718.869,762.972 729.535,755.305 740.5,748C 745.017,745.445 749.684,743.612 754.5,742.5 Z M 750.5,755.5 C 744.176,759.334 738.176,763.667 732.5,768.5C 737.208,775.95 742.374,782.95 748,789.5C 753.933,785.904 759.6,781.904 765,777.5C 766.943,775.01 768.109,772.177 768.5,769C 766.622,758.95 760.622,754.45 750.5,755.5 Z"/></g>
<g><path style="opacity:0.942" fill="#f9cc0a" d="M 1241.5,744.5 C 1259.85,756.346 1277.51,769.179 1294.5,783C 1292.18,786.656 1289.85,790.323 1287.5,794C 1260.17,801.333 1232.83,808.667 1205.5,816C 1216.42,823.711 1227.26,831.544 1238,839.5C 1240.62,835.217 1243.62,831.217 1247,827.5C 1250,829.833 1253,832.167 1256,834.5C 1255.96,836.279 1255.29,837.945 1254,839.5C 1249.97,845.184 1245.64,850.517 1241,855.5C 1223.1,842.795 1205.26,829.961 1187.5,817C 1190.14,812.366 1193.47,808.366 1197.5,805C 1224.02,798.121 1250.36,790.788 1276.5,783C 1266.66,776.245 1256.99,769.245 1247.5,762C 1246.5,761.333 1245.5,761.333 1244.5,762C 1242.38,765.951 1239.71,769.451 1236.5,772.5C 1233.17,770.167 1229.83,767.833 1226.5,765.5C 1231.26,758.295 1236.26,751.295 1241.5,744.5 Z"/></g>
<g><path style="opacity:0.996" fill="#f9f9f9" d="M 985.5,911.5 C 1062.07,909.155 1123.9,937.822 1171,997.5C 1214.82,1061.09 1223.82,1129.42 1198,1202.5C 1162.76,1283.06 1101.26,1327.9 1013.5,1337C 936.982,1339.65 875.149,1311.15 828,1251.5C 784.175,1187.91 775.175,1119.58 801,1046.5C 836.456,966.012 897.956,921.012 985.5,911.5 Z"/></g>
<g><path style="opacity:0.939" fill="#f9cc0a" d="M 588.5,936.5 C 592.671,937.217 596.338,938.883 599.5,941.5C 597.957,945.461 596.624,949.461 595.5,953.5C 583.126,955.372 575.292,962.372 572,974.5C 571.022,995.546 580.856,1008.71 601.5,1014C 615.527,1016.73 627.027,1012.57 636,1001.5C 643.361,987.296 641.527,974.463 630.5,963C 632.667,959.5 635.5,956.667 639,954.5C 650.477,964.93 654.81,977.93 652,993.5C 644.362,1019.08 627.196,1030.25 600.5,1027C 567.402,1018.94 554.568,998.441 562,965.5C 566.588,954.578 574.422,947.078 585.5,943C 587.171,941.157 588.171,938.991 588.5,936.5 Z"/></g>
<g><path style="opacity:0.94" fill="#f9cc0a" d="M 1415.5,947.5 C 1416.75,947.577 1417.58,948.244 1418,949.5C 1425.31,969.095 1432.81,988.595 1440.5,1008C 1432.41,1011.89 1424.08,1014.89 1415.5,1017C 1413.3,1013.42 1412.14,1009.58 1412,1005.5C 1416.52,1003.89 1420.69,1001.72 1424.5,999C 1421.12,989.704 1417.46,980.537 1413.5,971.5C 1405.24,974.799 1396.91,977.799 1388.5,980.5C 1391.2,988.91 1394.2,997.243 1397.5,1005.5C 1397.29,1006.09 1396.96,1006.59 1396.5,1007C 1393.49,1007.78 1390.65,1008.95 1388,1010.5C 1384.47,1003.42 1381.47,996.091 1379,988.5C 1378.63,987.09 1377.8,986.09 1376.5,985.5C 1367.64,988.785 1358.97,992.452 1350.5,996.5C 1354.05,1005.99 1357.88,1015.32 1362,1024.5C 1366.03,1022.54 1370.2,1020.88 1374.5,1019.5C 1377.53,1023.23 1379.19,1027.57 1379.5,1032.5C 1371.87,1034.73 1364.37,1037.39 1357,1040.5C 1356.23,1040.36 1355.56,1040.02 1355,1039.5C 1347.3,1020.08 1339.8,1000.58 1332.5,981C 1335.52,978.046 1339.18,976.546 1343.5,976.5C 1343.54,979.316 1344.54,981.649 1346.5,983.5C 1367.62,975.627 1388.62,967.461 1409.5,959C 1408.18,956.562 1407.35,954.062 1407,951.5C 1409.97,950.263 1412.8,948.93 1415.5,947.5 Z"/></g>
<g><path style="opacity:0.981" fill="#f9cc0a" d="M 585.5,1102.5 C 615.746,1102.57 629.246,1117.57 626,1147.5C 618.553,1167.91 604.053,1176.08 582.5,1172C 568.481,1167.98 559.981,1158.81 557,1144.5C 554.859,1122.41 564.359,1108.41 585.5,1102.5 Z"/></g>
<g><path style="opacity:0.98" fill="#f9cc0a" d="M 1393.5,1102.5 C 1414.91,1100.78 1428.74,1110.11 1435,1130.5C 1437.48,1150.73 1429.31,1164.56 1410.5,1172C 1383.6,1175.94 1368.27,1164.44 1364.5,1137.5C 1365.96,1118.87 1375.62,1107.2 1393.5,1102.5 Z"/></g>
<g><path style="opacity:0.942" fill="#f9cc0a" d="M 1329.5,1224.5 C 1338.56,1226.85 1347.22,1230.18 1355.5,1234.5C 1353.95,1238.66 1352.12,1242.66 1350,1246.5C 1345.39,1244.13 1340.56,1242.46 1335.5,1241.5C 1332.47,1250.75 1329.14,1259.91 1325.5,1269C 1325.83,1269.5 1326.17,1270 1326.5,1270.5C 1334.72,1273.74 1342.89,1277.07 1351,1280.5C 1354.07,1272.46 1357.24,1264.46 1360.5,1256.5C 1361.72,1255.39 1363.06,1255.22 1364.5,1256C 1367.22,1256.78 1369.55,1258.12 1371.5,1260C 1368.04,1268.06 1365.2,1276.23 1363,1284.5C 1371.37,1288.12 1379.87,1291.46 1388.5,1294.5C 1389.65,1294.18 1390.48,1293.52 1391,1292.5C 1394.31,1283.57 1397.81,1274.74 1401.5,1266C 1396.9,1264.36 1392.4,1262.52 1388,1260.5C 1388.3,1255.93 1389.63,1251.6 1392,1247.5C 1400,1250.83 1408,1254.17 1416,1257.5C 1408.82,1278.19 1401.32,1298.86 1393.5,1319.5C 1389.82,1318.66 1386.32,1317.33 1383,1315.5C 1383.45,1312.56 1383.95,1309.56 1384.5,1306.5C 1363.08,1299.19 1341.91,1291.19 1321,1282.5C 1319.41,1285.12 1317.91,1287.79 1316.5,1290.5C 1313.36,1289.06 1310.19,1287.73 1307,1286.5C 1314.57,1265.96 1322.07,1245.29 1329.5,1224.5 Z"/></g>
<g><path style="opacity:0.943" fill="#f9cc0a" d="M 637.5,1237.5 C 668.6,1239.76 683.767,1256.43 683,1287.5C 681.951,1292.65 680.117,1297.48 677.5,1302C 679.378,1303.99 679.712,1306.16 678.5,1308.5C 675.285,1310.48 671.952,1311.15 668.5,1310.5C 666.885,1306.94 665.552,1303.27 664.5,1299.5C 673.841,1285.34 672.841,1271.84 661.5,1259C 640.834,1246.79 622.334,1249.62 606,1267.5C 596.703,1283.89 599.203,1298.05 613.5,1310C 618.799,1312.91 624.465,1314.41 630.5,1314.5C 630.628,1318.88 630.295,1323.21 629.5,1327.5C 603.678,1325.18 589.678,1311.01 587.5,1285C 589.005,1264.33 599.338,1250 618.5,1242C 624.785,1239.68 631.118,1238.18 637.5,1237.5 Z"/></g>
<g><path style="opacity:0.942" fill="#f9cc0a" d="M 1225.5,1395.5 C 1226.68,1395.28 1227.68,1395.61 1228.5,1396.5C 1230.47,1399.64 1232.64,1402.64 1235,1405.5C 1233.94,1434.54 1232.61,1463.54 1231,1492.5C 1241.49,1484.59 1252.16,1476.92 1263,1469.5C 1263.32,1468.09 1262.98,1466.76 1262,1465.5C 1259.64,1462.64 1257.47,1459.64 1255.5,1456.5C 1258.55,1453.29 1262.05,1450.62 1266,1448.5C 1271.17,1455.67 1276.33,1462.83 1281.5,1470C 1263.6,1483.57 1245.44,1496.73 1227,1509.5C 1224.03,1506.86 1221.37,1503.86 1219,1500.5C 1219.5,1471.47 1220.5,1442.47 1222,1413.5C 1211.23,1420.8 1200.73,1428.47 1190.5,1436.5C 1193.56,1440.23 1196.23,1444.23 1198.5,1448.5C 1195.65,1451.51 1192.48,1454.18 1189,1456.5C 1183.22,1449.76 1178.05,1442.59 1173.5,1435C 1190.68,1421.66 1208.01,1408.5 1225.5,1395.5 Z"/></g>
<g><path style="opacity:0.945" fill="#f9cc0a" d="M 778.5,1405.5 C 790.804,1413.99 803.138,1422.49 815.5,1431C 827.088,1443.38 827.421,1456.05 816.5,1469C 810.242,1473.44 803.409,1474.94 796,1473.5C 796.494,1486.04 793.66,1497.87 787.5,1509C 790.009,1510.42 792.343,1512.09 794.5,1514C 792.575,1517.72 790.075,1520.88 787,1523.5C 781.42,1520.74 776.586,1517.08 772.5,1512.5C 776.898,1500.97 780.898,1489.3 784.5,1477.5C 783.641,1472.15 780.974,1467.98 776.5,1465C 773.582,1463.29 770.748,1461.46 768,1459.5C 762.304,1467.7 756.804,1476.03 751.5,1484.5C 753.806,1486.14 755.806,1488.14 757.5,1490.5C 755.748,1493.67 753.748,1496.67 751.5,1499.5C 742.952,1493.73 734.619,1487.73 726.5,1481.5C 728.473,1478.36 730.64,1475.36 733,1472.5C 735.333,1474.17 737.667,1475.83 740,1477.5C 753.167,1458.33 766.333,1439.17 779.5,1420C 776.764,1418.64 774.431,1416.8 772.5,1414.5C 774.758,1411.64 776.758,1408.64 778.5,1405.5 Z M 789.5,1427.5 C 785.14,1435.37 780.14,1442.87 774.5,1450C 780.156,1454.5 786.156,1458.5 792.5,1462C 796.167,1464 799.833,1464 803.5,1462C 812.739,1455.33 813.739,1447.67 806.5,1439C 800.805,1435.16 795.138,1431.32 789.5,1427.5 Z"/></g>
<g><path style="opacity:0.941" fill="#f9cc0a" d="M 1007.5,1480.5 C 1010.83,1480.5 1014.17,1480.5 1017.5,1480.5C 1027.03,1506.58 1036.86,1532.58 1047,1558.5C 1050.15,1560.36 1053.65,1561.03 1057.5,1560.5C 1057.5,1564.17 1057.5,1567.83 1057.5,1571.5C 1047.21,1572.43 1036.87,1572.76 1026.5,1572.5C 1026.5,1568.83 1026.5,1565.17 1026.5,1561.5C 1028.92,1561.81 1031.26,1561.47 1033.5,1560.5C 1031.17,1554.5 1028.83,1548.5 1026.5,1542.5C 1014.89,1542.3 1003.22,1542.3 991.5,1542.5C 989.836,1549.16 988.169,1555.83 986.5,1562.5C 989.5,1562.5 992.5,1562.5 995.5,1562.5C 995.793,1566.44 995.46,1570.27 994.5,1574C 984.506,1574.5 974.506,1574.67 964.5,1574.5C 964.5,1570.83 964.5,1567.17 964.5,1563.5C 967.711,1563.99 970.544,1563.32 973,1561.5C 981.333,1535.17 989.667,1508.83 998,1482.5C 1001.27,1481.87 1004.44,1481.2 1007.5,1480.5 Z M 1006.5,1493.5 C 1003.34,1506.15 999.672,1518.65 995.5,1531C 1003.83,1531.67 1012.17,1531.67 1020.5,1531C 1021.52,1529.95 1021.68,1528.78 1021,1527.5C 1016.8,1517.25 1012.8,1506.91 1009,1496.5C 1008.62,1495.06 1007.79,1494.06 1006.5,1493.5 Z"/></g>
</svg>
