<?xml version="1.0" standalone="no"?>
<!DOCTYPE svg PUBLIC "-//W3C//DTD SVG 20010904//EN"
 "http://www.w3.org/TR/2001/REC-SVG-20010904/DTD/svg10.dtd">
<svg version="1.0" xmlns="http://www.w3.org/2000/svg"
 width="1150.000000pt" height="237.000000pt" viewBox="0 0 1150.000000 237.000000"
 preserveAspectRatio="xMidYMid meet">

<g transform="translate(0.000000,237.000000) scale(0.100000,-0.100000)"
fill="#000000" stroke="none">
<path d="M3498 2045 c-309 -59 -534 -265 -617 -565 -34 -120 -45 -262 -32
-387 14 -138 39 -224 97 -343 40 -80 62 -110 138 -186 78 -78 106 -98 186
-137 112 -54 186 -74 314 -86 384 -37 707 131 850 439 30 67 66 179 66 209 0
8 -82 11 -280 11 l-279 0 -15 -27 c-19 -37 -83 -97 -126 -119 -20 -9 -67 -19
-108 -22 -126 -8 -215 44 -265 156 -74 164 -48 398 54 501 123 124 347 94 439
-58 l25 -41 277 0 c319 0 293 -11 257 106 -84 273 -282 463 -555 535 -105 27
-317 35 -426 14z"/>
<path d="M720 2036 c-215 -28 -451 -83 -517 -122 -45 -26 -83 -89 -83 -139 0
-35 49 -208 98 -343 35 -99 37 -102 45 -70 22 82 72 117 228 158 221 57 284
64 549 65 276 0 380 -14 608 -79 68 -20 136 -36 150 -36 41 0 91 36 109 77 23
57 85 302 81 326 -2 18 -21 27 -106 54 -119 37 -287 76 -429 99 -135 22 -589
28 -733 10z"/>
<path d="M4767 2008 c1 -18 2 -399 2 -845 l1 -813 265 0 265 0 0 303 0 302
158 -302 157 -303 293 0 293 0 -17 32 c-9 18 -91 163 -181 321 -91 159 -163
290 -161 291 1 1 37 19 79 39 92 44 172 120 217 205 109 204 73 470 -86 629
-67 66 -123 100 -237 140 l-80 28 -485 3 -485 3 2 -33z m794 -418 c19 -5 48
-24 65 -41 26 -27 29 -37 29 -99 0 -116 -39 -140 -230 -140 l-125 0 0 145 0
145 113 0 c61 0 128 -5 148 -10z"/>
<path d="M6932 2013 c-5 -16 -53 -145 -105 -288 -315 -859 -497 -1358 -497
-1366 0 -6 112 -8 277 -7 l277 3 40 122 40 123 282 0 c259 0 282 -1 289 -18 3
-9 22 -65 41 -124 l35 -108 280 0 c153 0 279 3 279 6 0 3 -45 128 -99 277
-380 1044 -500 1374 -506 1390 -7 16 -31 17 -315 17 l-308 0 -10 -27z m392
-776 c40 -125 71 -229 68 -232 -8 -8 -292 -6 -293 3 0 10 145 460 148 458 2
-2 36 -104 77 -229z"/>
<path d="M8367 2008 c1 -18 2 -113 2 -210 l1 -178 330 -2 331 -3 -330 -430
-330 -430 -1 -202 0 -203 635 0 635 0 0 210 0 210 -340 2 -340 3 340 435 340
435 0 198 0 197 -637 0 -638 0 2 -32z"/>
<path d="M9950 1195 l0 -845 565 0 565 0 0 210 0 210 -300 0 -300 0 0 120 0
120 265 0 265 0 0 200 0 200 -265 0 -265 0 0 105 0 105 300 0 300 0 0 210 0
210 -565 0 -565 0 0 -845z"/>
<path d="M515 1476 c-140 -37 -167 -53 -195 -110 -25 -52 -25 -89 0 -143 20
-46 35 -54 44 -25 19 59 182 121 413 156 82 12 86 14 60 25 -25 9 -113 65
-182 115 -18 12 -34 10 -140 -18z"/>
<path d="M762 1300 c-151 -26 -308 -78 -343 -112 -36 -36 -46 -88 -27 -136 18
-46 123 -215 193 -311 l52 -72 6 38 c15 94 125 141 352 150 146 6 260 -9 391
-52 87 -28 134 -24 171 17 24 27 92 140 154 256 51 95 55 86 -63 132 -116 45
-236 77 -351 94 -144 22 -401 20 -535 -4z"/>
<path d="M846 794 c-88 -19 -122 -37 -146 -77 -42 -68 -23 -111 111 -251 114
-120 156 -146 234 -146 76 0 121 27 218 130 48 51 87 96 87 100 0 4 -32 28
-71 54 -39 26 -108 83 -154 127 l-82 79 -64 -1 c-35 0 -95 -7 -133 -15z"/>
</g>
</svg>
