<?xml version="1.0" encoding="UTF-8"?>
<!DOCTYPE svg PUBLIC "-//W3C//DTD SVG 1.1//EN" "http://www.w3.org/Graphics/SVG/1.1/DTD/svg11.dtd">
<svg xmlns="http://www.w3.org/2000/svg" version="1.1" width="2000px" height="722px" style="shape-rendering:geometricPrecision; text-rendering:geometricPrecision; image-rendering:optimizeQuality; fill-rule:evenodd; clip-rule:evenodd" xmlns:xlink="http://www.w3.org/1999/xlink">
<g><path style="opacity:0.994" fill="#000000" d="M 1276.5,-0.5 C 1342.5,-0.5 1408.5,-0.5 1474.5,-0.5C 1474.5,240.167 1474.5,480.833 1474.5,721.5C 1408.5,721.5 1342.5,721.5 1276.5,721.5C 1276.5,480.833 1276.5,240.167 1276.5,-0.5 Z"/></g>
<g><path style="opacity:0.745" fill="#000000" d="M 1516.5,-0.5 C 1582.5,-0.5 1648.5,-0.5 1714.5,-0.5C 1714.5,240.167 1714.5,480.833 1714.5,721.5C 1648.5,721.5 1582.5,721.5 1516.5,721.5C 1516.5,480.833 1516.5,240.167 1516.5,-0.5 Z"/></g>
<g><path style="opacity:0.499" fill="#000000" d="M 1757.5,-0.5 C 1823.5,-0.5 1889.5,-0.5 1955.5,-0.5C 1955.5,240.167 1955.5,480.833 1955.5,721.5C 1889.5,721.5 1823.5,721.5 1757.5,721.5C 1757.5,480.833 1757.5,240.167 1757.5,-0.5 Z"/></g>
<g><path style="opacity:0.989" fill="#000000" d="M 104.5,23.5 C 127.832,22.522 150.165,26.6887 171.5,36C 203.937,53.3366 221.437,80.5033 224,117.5C 224.5,148.165 224.667,178.832 224.5,209.5C 194.167,209.5 163.833,209.5 133.5,209.5C 133.667,184.831 133.5,160.164 133,135.5C 133.341,126.678 130.841,118.845 125.5,112C 108.079,103.793 97.2459,108.959 93,127.5C 92.6667,131.5 92.3333,135.5 92,139.5C 91.3333,217.167 91.3333,294.833 92,372.5C 91.1906,383.417 94.6906,392.584 102.5,400C 116.953,405.853 126.453,401.353 131,386.5C 131.993,382.558 132.66,378.558 133,374.5C 133.5,345.169 133.667,315.835 133.5,286.5C 164.167,286.5 194.833,286.5 225.5,286.5C 225.667,320.502 225.5,354.502 225,388.5C 221.152,446.679 190.319,479.179 132.5,486C 104.89,490.064 78.5565,486.064 53.5,474C 20.1798,452.891 2.67979,422.391 1,382.5C 0.333333,302.833 0.333333,223.167 1,143.5C 1.73122,116.574 8.39788,91.2403 21,67.5C 32.0824,49.095 47.9157,36.595 68.5,30C 80.4324,26.6577 92.4324,24.4911 104.5,23.5 Z"/></g>
<g><path style="opacity:0.99" fill="#000000" d="M 254.5,28.5 C 306.501,28.3333 358.501,28.5 410.5,29C 437.843,31.9153 456.677,46.082 467,71.5C 473.12,90.3377 476.453,109.671 477,129.5C 478.338,151.956 477.338,174.289 474,196.5C 469.87,219.784 457.037,236.117 435.5,245.5C 455.893,252.071 467.393,266.071 470,287.5C 471.137,315.971 471.637,344.471 471.5,373C 471.368,409.503 471.035,446.003 470.5,482.5C 440.833,482.5 411.167,482.5 381.5,482.5C 381.959,419.147 381.459,355.814 380,292.5C 377.961,283.131 372.128,277.965 362.5,277C 357.504,276.389 352.504,275.889 347.5,275.5C 347.5,344.5 347.5,413.5 347.5,482.5C 316.5,482.5 285.5,482.5 254.5,482.5C 254.5,331.167 254.5,179.833 254.5,28.5 Z M 348.5,113.5 C 357.506,113.334 366.506,113.5 375.5,114C 381.719,116.225 385.219,120.725 386,127.5C 388,143.833 388,160.167 386,176.5C 385.171,186.643 380.005,193.143 370.5,196C 363.174,196.5 355.841,196.666 348.5,196.5C 348.5,168.833 348.5,141.167 348.5,113.5 Z"/></g>
<g><path style="opacity:0.99" fill="#000000" d="M 538.5,28.5 C 590.167,28.5 641.833,28.5 693.5,28.5C 707.713,179.845 722.047,331.179 736.5,482.5C 707.5,482.5 678.5,482.5 649.5,482.5C 647.139,458.199 645.139,433.865 643.5,409.5C 625.488,409.167 607.488,409.5 589.5,410.5C 587.522,434.364 585.522,458.198 583.5,482C 553.835,482.5 524.169,482.667 494.5,482.5C 509.227,331.175 523.893,179.842 538.5,28.5 Z M 612.5,106.5 C 613.833,106.5 615.167,106.5 616.5,106.5C 622.837,183.206 629.503,259.872 636.5,336.5C 623.167,336.5 609.833,336.5 596.5,336.5C 601.833,259.833 607.167,183.167 612.5,106.5 Z"/></g>
<g><path style="opacity:0.989" fill="#000000" d="M 761.5,28.5 C 825.167,28.5 888.833,28.5 952.5,28.5C 952.667,55.1687 952.5,81.8354 952,108.5C 916.833,204.833 881.667,301.167 846.5,397.5C 880.16,398.5 913.827,398.833 947.5,398.5C 947.5,426.5 947.5,454.5 947.5,482.5C 882.167,482.5 816.833,482.5 751.5,482.5C 751.333,454.165 751.5,425.831 752,397.5C 786.265,302.871 820.432,208.205 854.5,113.5C 823.507,112.5 792.507,112.167 761.5,112.5C 761.5,84.5 761.5,56.5 761.5,28.5 Z"/></g>
<g><path style="opacity:0.989" fill="#000000" d="M 979.5,28.5 C 1040.5,28.5 1101.5,28.5 1162.5,28.5C 1162.5,57.8333 1162.5,87.1667 1162.5,116.5C 1132.83,116.5 1103.17,116.5 1073.5,116.5C 1073.5,145.833 1073.5,175.167 1073.5,204.5C 1101.83,204.5 1130.17,204.5 1158.5,204.5C 1158.5,233.167 1158.5,261.833 1158.5,290.5C 1130.17,290.5 1101.83,290.5 1073.5,290.5C 1073.5,324.833 1073.5,359.167 1073.5,393.5C 1105.17,393.5 1136.83,393.5 1168.5,393.5C 1168.5,423.167 1168.5,452.833 1168.5,482.5C 1105.5,482.5 1042.5,482.5 979.5,482.5C 979.5,331.167 979.5,179.833 979.5,28.5 Z"/></g>
<g><path style="opacity:0.882" fill="#000000" d="M 1101.5,595.5 C 1104.5,595.5 1107.5,595.5 1110.5,595.5C 1110.5,621.5 1110.5,647.5 1110.5,673.5C 1107.5,673.5 1104.5,673.5 1101.5,673.5C 1101.5,647.5 1101.5,621.5 1101.5,595.5 Z"/></g>
<g><path style="opacity:0.871" fill="#000000" d="M 1014.5,602.5 C 1017.5,602.5 1020.5,602.5 1023.5,602.5C 1023.5,607.833 1023.5,613.167 1023.5,618.5C 1029.17,618.5 1034.83,618.5 1040.5,618.5C 1040.5,621.167 1040.5,623.833 1040.5,626.5C 1034.83,626.5 1029.17,626.5 1023.5,626.5C 1023.33,638.505 1023.5,650.505 1024,662.5C 1024.5,664.333 1025.67,665.5 1027.5,666C 1031.85,666.415 1036.18,666.249 1040.5,665.5C 1040.5,668.167 1040.5,670.833 1040.5,673.5C 1034.86,674.459 1029.19,674.626 1023.5,674C 1018.59,672.752 1015.76,669.586 1015,664.5C 1014.5,651.838 1014.33,639.171 1014.5,626.5C 1011.83,626.5 1009.17,626.5 1006.5,626.5C 1006.5,623.833 1006.5,621.167 1006.5,618.5C 1009.17,618.5 1011.83,618.5 1014.5,618.5C 1014.5,613.167 1014.5,607.833 1014.5,602.5 Z"/></g>
<g><path style="opacity:0.874" fill="#000000" d="M 583.5,617.5 C 592.127,616.527 599.627,618.86 606,624.5C 609.946,632.364 611.446,640.697 610.5,649.5C 598.5,649.5 586.5,649.5 574.5,649.5C 573.969,661.803 579.802,667.47 592,666.5C 597.497,666.056 602.997,665.722 608.5,665.5C 608.958,668.394 608.291,670.894 606.5,673C 572.746,680.58 559.58,667.413 567,633.5C 569.127,624.538 574.627,619.205 583.5,617.5 Z M 584.5,625.5 C 596.435,624.768 602.102,630.435 601.5,642.5C 592.5,642.5 583.5,642.5 574.5,642.5C 574.063,634.343 577.396,628.677 584.5,625.5 Z"/></g>
<g><path style="opacity:0.869" fill="#000000" d="M 635.5,617.5 C 641.245,617.211 646.912,617.711 652.5,619C 656.058,620.892 658.558,623.725 660,627.5C 660.333,639.5 660.667,651.5 661,663.5C 662.49,665.558 664.49,666.891 667,667.5C 667.018,669.797 666.851,672.131 666.5,674.5C 661.578,674.479 657.078,673.146 653,670.5C 643.636,674.869 634.136,675.369 624.5,672C 618.019,664.696 616.852,656.529 621,647.5C 623.626,644.769 626.793,642.936 630.5,642C 637.483,640.956 644.483,640.123 651.5,639.5C 653.521,629.835 649.688,625.168 640,625.5C 634.113,625.898 628.28,626.565 622.5,627.5C 621.52,624.914 621.187,622.247 621.5,619.5C 626.37,619.31 631.036,618.644 635.5,617.5 Z M 648.5,646.5 C 649.5,646.5 650.5,646.5 651.5,646.5C 651.666,652.176 651.499,657.843 651,663.5C 644.06,666.765 637.06,667.098 630,664.5C 626.284,658.543 627.118,653.377 632.5,649C 637.988,648.226 643.321,647.393 648.5,646.5 Z"/></g>
<g><path style="opacity:0.862" fill="#000000" d="M 701.5,617.5 C 702.5,617.5 703.5,617.5 704.5,617.5C 704.817,620.572 704.484,623.572 703.5,626.5C 697.287,628.273 691.287,630.606 685.5,633.5C 684.501,646.817 684.167,660.15 684.5,673.5C 681.5,673.5 678.5,673.5 675.5,673.5C 675.5,655.167 675.5,636.833 675.5,618.5C 678.5,618.5 681.5,618.5 684.5,618.5C 684.337,620.857 684.503,623.19 685,625.5C 690.174,621.954 695.674,619.287 701.5,617.5 Z"/></g>
<g><path style="opacity:0.874" fill="#000000" d="M 803.5,617.5 C 824.03,615.864 833.363,625.364 831.5,646C 832.398,670.086 821.064,679.086 797.5,673C 791.101,670.261 787.268,665.428 786,658.5C 784.089,648.022 784.756,637.689 788,627.5C 791.536,621.491 796.703,618.157 803.5,617.5 Z M 804.5,625.5 C 814.341,623.984 820.174,627.984 822,637.5C 822.801,644.889 822.467,652.223 821,659.5C 819.413,662.756 816.913,664.923 813.5,666C 803.596,668.619 797.43,665.119 795,655.5C 794.144,647.768 794.477,640.102 796,632.5C 797.851,628.843 800.684,626.51 804.5,625.5 Z"/></g>
<g><path style="opacity:0.86" fill="#000000" d="M 926.5,617.5 C 927.5,617.5 928.5,617.5 929.5,617.5C 929.784,620.777 929.451,623.943 928.5,627C 922.244,628.474 916.244,630.641 910.5,633.5C 909.501,646.817 909.167,660.15 909.5,673.5C 906.5,673.5 903.5,673.5 900.5,673.5C 900.5,655.167 900.5,636.833 900.5,618.5C 903.5,618.5 906.5,618.5 909.5,618.5C 909.337,620.857 909.503,623.19 910,625.5C 915.162,621.957 920.662,619.29 926.5,617.5 Z"/></g>
<g><path style="opacity:0.862" fill="#000000" d="M 973.5,617.5 C 981.884,617.59 990.217,618.257 998.5,619.5C 998.5,622.167 998.5,624.833 998.5,627.5C 991.173,626.592 983.839,626.092 976.5,626C 969.022,626.814 966.522,630.647 969,637.5C 969.75,638.126 970.584,638.626 971.5,639C 979.269,640.62 986.936,642.62 994.5,645C 1000.94,652.181 1001.78,660.015 997,668.5C 993.557,671.874 989.39,673.707 984.5,674C 976.098,674.638 967.764,674.138 959.5,672.5C 959.5,669.833 959.5,667.167 959.5,664.5C 967.145,665.582 974.811,666.082 982.5,666C 987.742,665.754 990.742,663.088 991.5,658C 990.782,656.013 989.782,654.179 988.5,652.5C 980.551,650.229 972.551,648.062 964.5,646C 960.203,643.066 958.203,638.899 958.5,633.5C 959.414,624.254 964.414,618.921 973.5,617.5 Z"/></g>
<g><path style="opacity:0.88" fill="#000000" d="M 1141.5,617.5 C 1159.61,616.047 1168.61,624.38 1168.5,642.5C 1168.25,644.858 1167.91,647.192 1167.5,649.5C 1155.83,649.5 1144.17,649.5 1132.5,649.5C 1131.92,661.749 1137.75,667.416 1150,666.5C 1155.5,666.056 1161,665.722 1166.5,665.5C 1166.5,667.833 1166.5,670.167 1166.5,672.5C 1157.57,674.129 1148.57,674.629 1139.5,674C 1132.95,673.116 1128.45,669.616 1126,663.5C 1122.67,652.167 1122.67,640.833 1126,629.5C 1129.3,622.948 1134.47,618.948 1141.5,617.5 Z M 1141.5,625.5 C 1153.93,624.259 1159.93,629.925 1159.5,642.5C 1150.5,642.5 1141.5,642.5 1132.5,642.5C 1132.14,634.876 1135.14,629.21 1141.5,625.5 Z"/></g>
<g><path style="opacity:0.856" fill="#000000" d="M 482.5,618.5 C 485.5,618.5 488.5,618.5 491.5,618.5C 494.642,634.389 498.476,650.056 503,665.5C 507.275,650.177 511.442,634.844 515.5,619.5C 518.833,619.5 522.167,619.5 525.5,619.5C 529.149,634.952 533.316,650.285 538,665.5C 542.134,650.632 545.8,635.632 549,620.5C 551.804,618.656 554.97,617.989 558.5,618.5C 554.495,636.189 550.328,653.856 546,671.5C 543.787,672.76 541.287,673.426 538.5,673.5C 535.911,673.473 533.411,673.139 531,672.5C 527.632,659.686 523.965,647.02 520,634.5C 516.499,647.172 512.999,659.839 509.5,672.5C 504.869,673.662 500.202,673.828 495.5,673C 490.62,654.981 486.287,636.814 482.5,618.5 Z"/></g>
<g><path style="opacity:0.86" fill="#000000" d="M 731.5,618.5 C 735.03,617.989 738.196,618.656 741,620.5C 745.327,635.475 749.493,650.475 753.5,665.5C 755.124,665.64 756.29,664.973 757,663.5C 761.481,648.562 765.647,633.562 769.5,618.5C 772.5,618.5 775.5,618.5 778.5,618.5C 771.85,644.287 764.683,669.954 757,695.5C 754.196,697.344 751.03,698.011 747.5,697.5C 749.447,689.543 751.78,681.71 754.5,674C 751.854,673.503 749.187,673.336 746.5,673.5C 741.344,655.211 736.344,636.877 731.5,618.5 Z"/></g>
<g><path style="opacity:0.873" fill="#000000" d="M 843.5,618.5 C 846.5,618.5 849.5,618.5 852.5,618.5C 852.089,632.884 852.589,647.217 854,661.5C 856.222,664.755 859.389,666.422 863.5,666.5C 868.228,665.861 872.728,664.527 877,662.5C 877.5,647.837 877.667,633.17 877.5,618.5C 880.5,618.5 883.5,618.5 886.5,618.5C 886.5,636.833 886.5,655.167 886.5,673.5C 883.5,673.5 880.5,673.5 877.5,673.5C 877.719,672.325 877.386,671.325 876.5,670.5C 866.497,676.148 856.83,675.815 847.5,669.5C 845.631,666.06 844.465,662.393 844,658.5C 843.5,645.171 843.333,631.837 843.5,618.5 Z"/></g>
<g><path style="opacity:0.858" fill="#000000" d="M 1044.5,618.5 C 1047.5,618.5 1050.5,618.5 1053.5,618.5C 1057.19,633.607 1061.36,648.607 1066,663.5C 1066.71,664.973 1067.88,665.64 1069.5,665.5C 1073.36,650.432 1077.52,635.432 1082,620.5C 1084.8,618.656 1087.97,617.989 1091.5,618.5C 1084.17,644.833 1076.83,671.167 1069.5,697.5C 1066.5,697.5 1063.5,697.5 1060.5,697.5C 1062.29,689.451 1064.29,681.451 1066.5,673.5C 1063.88,673.768 1061.38,673.435 1059,672.5C 1053.65,654.609 1048.81,636.609 1044.5,618.5 Z"/></g>
</svg>
